<?xml version="1.0" encoding="utf-8"?>
<!-- Generator: Adobe Illustrator 27.5.0, SVG Export Plug-In . SVG Version: 6.00 Build 0)  -->
<svg version="1.1" xmlns="http://www.w3.org/2000/svg" xmlns:xlink="http://www.w3.org/1999/xlink" x="0px" y="0px"
	 viewBox="0 0 2475 1650" style="enable-background:new 0 0 2475 1650;" xml:space="preserve">
<g id="Background">
	<rect style="fill:#FFFFFF;" width="2475" height="1650"/>
</g>
<g id="Illustration">
	<g>
		<linearGradient id="SVGID_1_" gradientUnits="userSpaceOnUse" x1="937.2985" y1="-96.5564" x2="1622.7638" y2="1846.3014">
			<stop  offset="0" style="stop-color:#DAE3FE"/>
			<stop  offset="1" style="stop-color:#E9EFFD"/>
		</linearGradient>
		<path style="fill:url(#SVGID_1_);" d="M2342.698,388.697c-57.132-113.682-182.577-199.171-304.677-172.943
			c-73.108,15.705-145.771,68.391-215.869,41.941c-50.527-19.064-79.045-73.128-121.515-107.049
			c-65.369-52.211-158.155-51.603-237.821-28.21c-79.665,23.393-152.59,66.411-231.294,93.006
			c-134.133,45.324-283.84,40.403-414.866-13.636c-57.518-23.723-111.359-56.463-169.914-77.35
			c-58.556-20.887-124.968-28.998-181.489-2.877c-56.521,26.121-97.079,94.44-77.464,154.73
			c3.911,12.021,10.047,23.866,9.245,36.512c-1.285,20.278-20.394,35.13-39.723,39.641c-19.329,4.51-39.473,1.565-59.29,2.08
			c-88.931,2.311-168.403,85.473-168.825,176.662c-0.35,75.618,45.148,142.068,84.044,206.321
			c38.896,64.253,73.855,141.35,50.684,213.142c-13.74,42.571-45.971,75.874-67.087,115.144
			c-54.744,101.81-25.481,236.586,50.961,322.459c76.441,85.874,190.924,127.893,303.911,137.895
			c112.987,10.004,226.3-8.776,338.253-27.337c111.952-18.561,225.354-37.024,338.285-26.389l-6.07-3.38
			c220.631,55.875,451.422,69.289,676.802,39.342c47.183-6.27,101.348-19.751,121.289-64.032
			c16.836-37.385,1.719-81.206,5.184-122.229c4.993-59.117,48.27-107.543,95.457-141.914
			c47.186-34.371,100.719-59.951,143.232-100.223c83.166-78.784,111.389-200.727,123.788-316.109
			C2401.591,636.784,2399.829,502.379,2342.698,388.697z"/>
		<g>
			<path style="fill:#BDD0FB;" d="M727.614,1496.291c75.839-39.516,101.798-175.208,58.689-219.309
				c-29.129-29.798-70.9,1.544-111.199-29.344c-51.452-39.437-13.603-113.713-54.055-210.042
				c-34.425-81.977-117-159.549-165.254-143.632c-50.511,16.661-77.115,140.279-33.977,214.675
				c28.053,48.381,70.995,50.757,80.31,95.755c10.81,52.212-41.415,76.023-41.699,126.643
				C459.916,1421.964,627.284,1548.567,727.614,1496.291z"/>
			<path style="fill:#91B3FA;" d="M686.689,1531.041c0.453,0,0.912-0.1,1.346-0.311c1.535-0.745,2.176-2.593,1.431-4.127
				c-100.543-207.178-130.025-447.524-130.311-449.927c-0.202-1.694-1.741-2.905-3.432-2.702c-1.694,0.201-2.904,1.738-2.702,3.432
				c0.288,2.414,29.896,243.792,130.887,451.893C684.442,1530.4,685.543,1531.041,686.689,1531.041z"/>
			<path style="fill:#F0F0F0;" d="M480.412,1138.919c0.317,0,0.637-0.102,0.907-0.311c0.643-0.502,0.758-1.428,0.257-2.072
				c-31.736-40.736-66.909-101.936-54.248-162.162c7.54-35.868,28.765-54.576,28.979-54.76c0.616-0.533,0.684-1.464,0.151-2.082
				c-0.534-0.617-1.467-0.685-2.082-0.149c-0.902,0.78-22.193,19.55-29.936,56.384c-7.117,33.853-3.385,89.887,54.807,164.583
				C479.538,1138.723,479.973,1138.919,480.412,1138.919z"/>
			<path style="fill:#F0F0F0;" d="M734.451,1478.198c0.471,0,0.934-0.225,1.219-0.641c48.771-71.18,65.403-126.179,49.432-163.469
				c-14.2-33.153-50.053-39.323-50.413-39.383c-0.807-0.125-1.562,0.417-1.693,1.221c-0.131,0.803,0.415,1.563,1.219,1.694
				c0.345,0.056,34.649,6.002,48.188,37.665c15.52,36.3-1.022,90.334-49.168,160.601c-0.461,0.673-0.29,1.592,0.382,2.053
				C733.874,1478.115,734.164,1478.198,734.451,1478.198z"/>
		</g>
		<g>
			<path style="fill:#7D97F4;" d="M403.444,868.055h-85.8c-10.644,0-20.481,5.679-25.803,14.897l-42.9,74.304
				c-5.322,9.219-5.322,20.576,0,29.795l42.9,74.305c5.322,9.219,15.159,14.897,25.803,14.897h85.8
				c10.645,0,20.48-5.679,25.803-14.897l42.9-74.305c5.322-9.218,5.322-20.576,0-29.795l-42.9-74.304
				C423.925,873.734,414.089,868.055,403.444,868.055z"/>
			<path style="fill:#91B3FA;" d="M317.645,1061.993c-5.532,0-10.687-2.976-13.453-7.767l-42.9-74.305
				c-2.766-4.791-2.766-10.743,0-15.535l42.9-74.304c2.766-4.791,7.921-7.767,13.453-7.767h85.8c5.532,0,10.687,2.976,13.453,7.767
				l42.9,74.305c2.766,4.791,2.766,10.743,0,15.535l-42.9,74.304c-2.766,4.791-7.921,7.767-13.453,7.767H317.645z"/>
		</g>
		<g>
			<path style="fill:#7D97F4;" d="M593.98,985.155h-85.8c-10.644,0-20.481,5.679-25.803,14.897l-42.9,74.304
				c-5.322,9.219-5.322,20.577,0,29.795l42.9,74.304c5.322,9.219,15.159,14.898,25.803,14.898h85.8
				c10.645,0,20.481-5.679,25.803-14.898l42.9-74.304c5.322-9.218,5.322-20.576,0-29.795l-42.9-74.304
				C614.46,990.834,604.624,985.155,593.98,985.155z"/>
			<path style="fill:#91B3FA;" d="M508.18,1179.093c-5.532,0-10.687-2.976-13.453-7.767l-42.9-74.305
				c-2.766-4.791-2.766-10.743,0-15.535l42.899-74.304c2.766-4.791,7.921-7.767,13.453-7.767h85.8
				c5.532,0,10.687,2.976,13.453,7.767l42.9,74.305c2.766,4.791,2.766,10.744,0,15.535l-42.9,74.304
				c-2.766,4.792-7.921,7.767-13.453,7.767H508.18z"/>
		</g>
		<g>
			<path style="fill:#7D97F4;" d="M609.858,754.925h-85.8c-10.644,0-20.481,5.679-25.803,14.897l-42.9,74.304
				c-5.322,9.219-5.322,20.576,0,29.795l42.9,74.305c5.322,9.218,15.158,14.897,25.803,14.897h85.8
				c10.645,0,20.481-5.679,25.803-14.897l42.9-74.305c5.322-9.218,5.322-20.576,0-29.795l-42.9-74.304
				C630.338,760.604,620.502,754.925,609.858,754.925z"/>
			<path style="fill:#91B3FA;" d="M524.058,948.863c-5.532,0-10.687-2.976-13.453-7.767l-42.9-74.305
				c-2.766-4.791-2.766-10.743,0-15.535l42.9-74.304c2.766-4.791,7.921-7.767,13.453-7.767h85.8c5.532,0,10.688,2.976,13.453,7.767
				l42.9,74.305c2.766,4.791,2.766,10.743,0,15.535l-42.9,74.304c-2.766,4.791-7.921,7.767-13.453,7.767H524.058z"/>
		</g>
		<g>
			<path style="fill:#91B3FA;" d="M2313.086,776.832c-20.618,110.013-169.578,744.608-855.886,697.966
				c0,0-21.347-445.519,841.881-709.024C2306.632,763.468,2314.433,769.644,2313.086,776.832z"/>
			<path style="fill:#BDD0FB;" d="M2236.046,884.827c-10.588,16.552-21.873,32.529-33.399,48.367
				c-5.736,7.935-11.671,15.721-17.553,23.548c-6.02,7.719-11.912,15.541-18.07,23.151c-24.381,30.641-49.878,60.396-76.448,89.167
				c-53.191,57.467-110.386,111.385-172.14,159.68c-15.277,12.281-31.206,23.707-46.962,35.365
				c-16.163,11.086-32.103,22.512-48.754,32.877c-16.336,10.856-33.376,20.578-50.201,30.653
				c-8.563,4.777-17.205,9.416-25.805,14.13c-4.324,2.313-8.569,4.776-12.957,6.965l-13.183,6.536l-13.184,6.536
				c-4.396,2.176-8.763,4.415-13.28,6.333l-26.891,11.975c-2.247,0.984-4.469,2.027-6.737,2.962l-6.848,2.699l-13.696,5.398
				c-9.14,3.576-18.207,7.351-27.562,10.348l-27.868,9.533c-9.363,2.947-18.845,5.519-28.264,8.297l-14.151,4.093
				c-4.755,1.219-9.553,2.279-14.328,3.427l-28.684,6.758c-2.133,0.502-4.27-0.819-4.773-2.953c-0.503-2.133,0.819-4.27,2.953-4.773
				l0.019-0.004l0.199-0.046l28.447-6.559c4.737-1.113,9.495-2.14,14.214-3.324l14.044-3.99c9.348-2.708,18.761-5.21,28.059-8.087
				l27.682-9.32c9.294-2.925,18.307-6.628,27.394-10.133l13.618-5.29l6.809-2.645c2.255-0.917,4.466-1.942,6.701-2.908
				l26.756-11.759c4.495-1.883,8.843-4.086,13.219-6.226l13.127-6.429l13.128-6.428c4.371-2.153,8.601-4.581,12.908-6.859
				c8.568-4.644,17.181-9.21,25.716-13.917c16.774-9.936,33.766-19.517,50.066-30.237c16.613-10.227,32.527-21.521,48.668-32.474
				c15.737-11.528,31.651-22.823,46.922-34.978c61.725-47.788,118.995-101.247,172.314-158.292
				c26.634-28.56,52.209-58.113,76.677-88.557c6.18-7.561,12.093-15.333,18.136-23.004c5.903-7.777,11.861-15.514,17.62-23.399
				c11.56-15.721,22.926-31.653,33.492-47.996l0.021-0.032c0.504-0.78,1.545-1.003,2.324-0.499
				C2236.323,883.013,2236.551,884.047,2236.046,884.827z"/>
		</g>
		<g>
			<path style="fill:#BDD0FB;" d="M2002.21,252.636c51.059,131.026,312.233,904.031-481.361,1246.568
				c0,0-323.214-470.567,458.372-1250.529C1986.058,241.852,1998.874,244.076,2002.21,252.636z"/>
			<path style="fill:#BDD0FB;" d="M1968.346,457.449c-6.498,43.866-14.552,87.416-23.325,130.841
				c-8.806,43.413-18.502,86.646-29.099,129.661c-21.222,86.015-45.862,171.239-75.104,254.929
				c-29.31,83.632-63.109,165.868-104.137,244.596c-20.565,39.316-42.883,77.779-67.767,114.597
				c-24.739,36.902-52.239,72.036-82.67,104.552c-1.498,1.601-4.01,1.684-5.611,0.186c-1.601-1.498-1.684-4.01-0.186-5.611
				l0.012-0.012l0.023-0.025c30.211-32.006,57.619-66.696,82.332-103.222c24.858-36.44,47.215-74.585,67.849-113.622
				c41.169-78.174,75.226-160.011,104.824-243.316c29.531-83.365,54.498-168.337,76.06-254.139
				c10.767-42.908,20.636-86.044,29.618-129.365c8.947-43.317,17.186-86.83,23.85-130.522l0.004-0.028
				c0.14-0.918,0.998-1.549,1.916-1.409C1967.855,455.68,1968.486,456.531,1968.346,457.449z"/>
		</g>
		<g>
			
				<linearGradient id="SVGID_00000165200978549525946130000014749046580788388526_" gradientUnits="userSpaceOnUse" x1="1452.8489" y1="4.017" x2="1072.1575" y2="1663.2618">
				<stop  offset="0" style="stop-color:#09005D"/>
				<stop  offset="1" style="stop-color:#1A0F91"/>
			</linearGradient>
			<path style="fill:url(#SVGID_00000165200978549525946130000014749046580788388526_);" d="M1752.842,1095.161
				c37.676-35.58,57.365-89.319,51.59-140.817c-5.774-51.497-36.875-99.543-81.495-125.894
				c-24.484-14.46-54.432-24.372-67.975-49.376c-10.931-20.182-7.908-44.718-4.949-67.479
				c14.434-111.064,19.51-227.534-22.104-331.513c-61.827-154.485-231.651-258.157-397.283-242.913
				c-165.632-15.244-335.456,88.428-397.283,242.913c-41.614,103.979-36.539,220.45-22.104,331.513
				c2.958,22.761,5.982,47.297-4.949,67.479c-13.542,25.004-43.491,34.915-67.975,49.376
				c-44.62,26.351-75.721,74.397-81.495,125.894c-5.774,51.497,13.914,105.237,51.59,140.817
				c12.296,11.611,26.977,22.265,32.374,38.292c7.526,22.351-5.611,45.666-12.639,68.178
				c-23.618,75.656,26.297,158.601,94.473,199.019c63.895,37.88,139.879,47.27,214.155,54.104
				c32.352,9.84,65.33,19.204,99.076,18.623c35.776-0.616,73.212-14.272,93.774-43.555c0.35-0.499,0.665-1.017,1.004-1.521
				c0.339,0.504,0.653,1.022,1.003,1.521c20.562,29.283,57.998,42.939,93.774,43.555c33.746,0.581,66.724-8.783,99.076-18.623
				c74.276-6.834,150.26-16.223,214.155-54.104c68.176-40.418,118.09-123.363,94.472-199.019
				c-7.027-22.512-20.165-45.827-12.639-68.178C1725.864,1117.425,1740.546,1106.772,1752.842,1095.161z"/>
			
				<linearGradient id="SVGID_00000103985619750734936510000017435755836120543643_" gradientUnits="userSpaceOnUse" x1="1234.6771" y1="779.74" x2="1231.6769" y2="1526.8125">
				<stop  offset="0" style="stop-color:#FF928E"/>
				<stop  offset="1" style="stop-color:#FEB3B1"/>
			</linearGradient>
			<path style="fill:url(#SVGID_00000103985619750734936510000017435755836120543643_);" d="M1652.139,1337.38
				c-97.159,2.776-224.853,49.967-283.148-27.759c-58.295-77.727-36.088-316.459-36.088-316.459s-71.576-7.456-108.715-5.973
				c-37.139-1.483-108.716,5.973-108.716,5.973s22.208,238.732-36.088,316.459c-58.295,77.727-185.989,30.536-283.148,27.759
				c-76.88-2.197-103.813,141.809-92.651,177.99c2.864,9.285,11.463,15.589,21.18,15.589h1014.722
				c9.717,0,18.315-6.304,21.18-15.589C1771.83,1479.189,1729.019,1335.184,1652.139,1337.38z"/>
			
				<linearGradient id="SVGID_00000090275178806476848990000017532830534414548893_" gradientUnits="userSpaceOnUse" x1="1226.6879" y1="1413.0708" x2="1254.4741" y2="1873.531">
				<stop  offset="0" style="stop-color:#4042E2"/>
				<stop  offset="1" style="stop-color:#4F52FF"/>
			</linearGradient>
			<path style="fill:url(#SVGID_00000090275178806476848990000017532830534414548893_);" d="M1652.139,1337.38
				c-50.321,1.438-108.832,14.786-161.651,16.526c-48.277,39.839-139.904,98.316-256.177,91.709
				c-128.108-7.279-219.908-62.606-259.742-91.581c-56.932,1.11-122.645-15.063-178.331-16.654
				c-76.88-2.197-103.813,141.809-92.651,177.99c2.864,9.285,11.463,15.589,21.18,15.589h1014.722
				c9.717,0,18.315-6.304,21.18-15.589C1771.83,1479.189,1729.019,1335.184,1652.139,1337.38z"/>
			
				<linearGradient id="SVGID_00000157270474577007925780000017607422558707039903_" gradientUnits="userSpaceOnUse" x1="1207.088" y1="168.4256" x2="1243.0916" y2="993.5044">
				<stop  offset="0" style="stop-color:#FF928E"/>
				<stop  offset="1" style="stop-color:#FEB3B1"/>
			</linearGradient>
			<path style="fill:url(#SVGID_00000157270474577007925780000017607422558707039903_);" d="M988.218,441.141
				c-5.75,9.528-8.877,20.415-9.12,31.541c-1.624,74.414-6.618,380.537,19.457,440.71c32.356,74.668,115.538,156.17,220.231,171.127
				c104.693,14.957,232.755-128.815,247.723-197.894c7.902-36.465,7.015-332.317,6.635-411.066
				c-0.065-13.411-4.348-26.432-12.23-37.283c-29.46-40.556-111.443-134.476-233.135-124.584
				C1144.997,320.422,1057.829,325.808,988.218,441.141z"/>
			
				<linearGradient id="SVGID_00000099625854192306698140000014302373289750395552_" gradientUnits="userSpaceOnUse" x1="1478.765" y1="156.5702" x2="1514.7687" y2="981.6526">
				<stop  offset="0" style="stop-color:#FF928E"/>
				<stop  offset="1" style="stop-color:#FEB3B1"/>
			</linearGradient>
			<path style="fill:url(#SVGID_00000099625854192306698140000014302373289750395552_);" d="M1456.818,697.505
				c0,0,0-134.605,74.781-59.826c74.781,74.781-74.781,179.473-74.781,179.473V697.505z"/>
			
				<linearGradient id="SVGID_00000154423984438341443500000005476736948052378252_" gradientUnits="userSpaceOnUse" x1="-60.1859" y1="56.7727" x2="-24.1822" y2="881.8552" gradientTransform="matrix(-1 0 0 1 915.1885 0)">
				<stop  offset="0" style="stop-color:#FF928E"/>
				<stop  offset="1" style="stop-color:#FEB3B1"/>
			</linearGradient>
			<path style="fill:url(#SVGID_00000154423984438341443500000005476736948052378252_);" d="M992.967,697.505
				c0,0,0-134.605-74.781-59.826c-74.781,74.781,74.781,179.473,74.781,179.473V697.505z"/>
			
				<linearGradient id="SVGID_00000092451117777685846670000012887095921358541960_" gradientUnits="userSpaceOnUse" x1="1352.9523" y1="12.3255" x2="1037.3478" y2="1387.8888">
				<stop  offset="0" style="stop-color:#09005D"/>
				<stop  offset="1" style="stop-color:#1A0F91"/>
			</linearGradient>
			<path style="fill:url(#SVGID_00000092451117777685846670000012887095921358541960_);" d="M963.1,579.875
				c0.182,4.627,64.041-44.308,174.225-64.712c134.402-24.889,181.28-98.656,211.559-98.656c14.933,0,37.334,9.26,34.845,74.078
				c-2.489,64.818,67.201,141.21,121.958,67.133c54.756-74.077-47.29-266.216-281.249-261.586
				C990.478,300.761,955.633,390.052,963.1,579.875z"/>
			<g>
				
					<linearGradient id="SVGID_00000049931558791318033560000008092106158173557673_" gradientUnits="userSpaceOnUse" x1="1084.5862" y1="245.461" x2="1084.5862" y2="464.4828">
					<stop  offset="0" style="stop-color:#09005D"/>
					<stop  offset="1" style="stop-color:#1A0F91"/>
				</linearGradient>
				<path style="fill:url(#SVGID_00000049931558791318033560000008092106158173557673_);" d="M1009.862,686.13
					c12.291-5.327,21.578-17.638,34.294-22.934c15.078-6.28,31.003-6.229,46.094-1.318c26.177,8.518,53.505,29.642,81.6,16.228
					c0.988-0.472,0.755-2.495-0.355-2.442c-36.169,1.699-63.062-29.092-98.17-31.574c-13.259-0.938-28.967-1.169-41.254,5.024
					c-10.921,5.504-35.377,22.879-35.377,22.879S1007.149,687.306,1009.862,686.13z"/>
				
					<linearGradient id="SVGID_00000018958255893376605360000007101193732330019725_" gradientUnits="userSpaceOnUse" x1="1503.8103" y1="241.5412" x2="1443.8041" y2="430.5603">
					<stop  offset="0" style="stop-color:#09005D"/>
					<stop  offset="1" style="stop-color:#1A0F91"/>
				</linearGradient>
				<path style="fill:url(#SVGID_00000018958255893376605360000007101193732330019725_);" d="M1441.144,686.13
					c-12.291-5.327-21.578-17.638-34.294-22.934c-15.078-6.28-31.003-6.229-46.094-1.318c-26.177,8.518-53.505,29.642-81.6,16.228
					c-0.988-0.472-0.755-2.495,0.355-2.442c36.169,1.699,63.062-29.092,98.17-31.574c13.259-0.938,28.967-1.169,41.254,5.024
					c10.921,5.504,35.377,22.879,35.377,22.879S1443.858,687.306,1441.144,686.13z"/>
			</g>
			
				<linearGradient id="SVGID_00000096050993490076883890000015924379832745367717_" gradientUnits="userSpaceOnUse" x1="1317.4147" y1="214.2523" x2="1342.9132" y2="407.7426">
				<stop  offset="0" style="stop-color:#09005D"/>
				<stop  offset="1" style="stop-color:#1A0F91"/>
			</linearGradient>
			<path style="fill:url(#SVGID_00000096050993490076883890000015924379832745367717_);" d="M1276.691,582.407L1276.691,582.407
				c0,6.573,6.426,11.253,12.664,9.179c30.24-10.052,108.546-30.354,167.72,4.613c0,0-33.071-76.064-174.193-22.813
				C1279.145,574.796,1276.691,578.413,1276.691,582.407z"/>
			
				<linearGradient id="SVGID_00000008108093419042123490000006579284547313374354_" gradientUnits="userSpaceOnUse" x1="-272.2517" y1="-80.4607" x2="-246.7532" y2="113.0294" gradientTransform="matrix(-1 0 0 1 901 0)">
				<stop  offset="0" style="stop-color:#09005D"/>
				<stop  offset="1" style="stop-color:#1A0F91"/>
			</linearGradient>
			<path style="fill:url(#SVGID_00000008108093419042123490000006579284547313374354_);" d="M1175.138,582.407L1175.138,582.407
				c0,6.573-6.426,11.253-12.664,9.179c-30.24-10.052-108.546-30.354-167.72,4.613c0,0,33.071-76.064,174.192-22.813
				C1172.683,574.796,1175.138,578.413,1175.138,582.407z"/>
			<g>
				
					<linearGradient id="SVGID_00000025404728435328783150000015484282693680161672_" gradientUnits="userSpaceOnUse" x1="1116.3022" y1="936.9044" x2="1351.847" y2="916.8642">
					<stop  offset="0" style="stop-color:#E1473D"/>
					<stop  offset="1" style="stop-color:#E9605A"/>
				</linearGradient>
				<path style="fill:url(#SVGID_00000025404728435328783150000015484282693680161672_);" d="M1350.207,897.585
					c0,0-45.735-21.207-77.178-18.556c-31.443,2.651-41.447,10.604-41.447,10.604s-10.005-7.953-41.447-10.604
					c-31.443-2.651-77.178,18.556-77.178,18.556c23.858,60.343,80.036,82.176,118.625,81.605
					C1270.171,979.761,1326.348,957.928,1350.207,897.585z"/>
				<path style="fill:#FFFFFF;" d="M1320.385,912.164c0,0-39.759,27.834-88.803,27.834s-88.803-27.834-88.803-27.834
					s39.759-6.627,88.803-6.627S1320.385,912.164,1320.385,912.164z"/>
			</g>
			<path style="fill:#7D97F4;" d="M879.771,962.472c-3.075,0-6.192-0.314-9.333-0.98c-1.072-0.227-1.757-1.28-1.529-2.353
				c0.227-1.073,1.274-1.754,2.353-1.53c20.255,4.298,48.32-8.896,58.33-37.69c7.387-21.251,4.427-47.821-8.334-74.818
				c-7.345-15.539-17.081-30.167-26.496-44.313c-4.88-7.332-9.927-14.914-14.601-22.56c-22.706-37.137-35.331-73.913-37.523-109.305
				c-2.58-41.661,10.089-81.339,34.76-108.862c28.174-31.429,69.645-45.987,106.498-56.084c26.754-7.33,54.31-13.304,80.959-19.081
				c33.16-7.188,67.448-14.621,100.386-24.717c70.835-21.715,122.187-52.436,156.99-93.918c0.704-0.84,1.959-0.95,2.796-0.245
				c0.84,0.705,0.95,1.957,0.245,2.796c-35.311,42.088-87.276,73.215-158.868,95.162c-33.097,10.146-67.469,17.596-100.708,24.803
				c-26.597,5.765-54.1,11.727-80.751,19.028c-36.294,9.944-77.104,24.242-104.591,54.905
				c-23.966,26.736-36.269,65.359-33.754,105.966c2.152,34.74,14.583,70.901,36.947,107.482c4.635,7.58,9.66,15.13,14.519,22.431
				c9.494,14.264,19.313,29.014,26.781,44.816c13.208,27.944,16.225,55.579,8.493,77.817
				C925.927,942.551,904.244,962.472,879.771,962.472z"/>
			<path style="fill:#7D97F4;" d="M861.05,517.865c-0.037,0-0.075-0.002-0.112-0.006c-0.545-0.062-0.936-0.553-0.875-1.098
				c2.397-21.279,15.764-41.799,36.675-56.297c20.272-14.055,44.647-20.779,63.619-25.067
				c35.136-7.941,71.577-11.757,106.817-15.448c8.961-0.938,17.92-1.876,26.866-2.88c43.214-4.848,89.031-11.596,131.305-28.012
				c32.34-12.557,76.79-36.676,104.885-80.266c0.297-0.461,0.912-0.59,1.372-0.297c0.46,0.298,0.593,0.911,0.297,1.372
				c-28.385,44.037-73.221,68.377-105.835,81.041c-42.487,16.497-88.456,23.271-131.803,28.134
				c-8.95,1.004-17.914,1.942-26.879,2.881c-35.184,3.685-71.565,7.494-106.586,15.41c-18.796,4.249-42.935,10.902-62.927,24.763
				c-20.439,14.171-33.5,34.177-35.832,54.888C861.979,517.491,861.548,517.865,861.05,517.865z"/>
			<path style="fill:#7D97F4;" d="M1586.246,1293.654c-0.836,0-1.615-0.533-1.887-1.371c-0.34-1.043,0.231-2.162,1.272-2.501
				c13.545-4.408,20.422-19.987,20.215-33.097c-0.231-14.645-7.136-28.56-13.589-40.452l-2.194-4.016
				c-6.353-11.591-12.922-23.577-15.442-36.815c-7.529-39.549,22.833-73.113,36.237-85.707c11-10.338,23.295-19.477,35.184-28.317
				c13.174-9.794,26.798-19.921,38.561-31.631c26.213-26.096,37.466-57.283,30.102-83.424
				c-6.997-24.833-27.827-40.503-49.881-57.093c-10.21-7.68-20.767-15.621-29.751-24.523c-26.467-26.225-42.431-65.714-43.8-108.34
				c-1.148-35.726,6.984-73.5,24.864-115.48c0.428-1.009,1.598-1.481,2.603-1.049c1.009,0.429,1.478,1.595,1.049,2.603
				c-17.648,41.437-25.677,78.661-24.548,113.797c1.336,41.622,16.873,80.13,42.625,105.648
				c8.793,8.712,19.241,16.572,29.344,24.172c21.61,16.256,43.956,33.066,51.316,59.19c7.761,27.546-3.874,60.186-31.121,87.312
				c-11.967,11.912-25.706,22.127-38.993,32.005c-11.8,8.771-24,17.841-34.835,28.022c-12.925,12.147-42.217,44.458-35.055,82.073
				c2.402,12.623,8.819,24.329,15.023,35.65l2.202,4.03c6.678,12.307,13.824,26.738,14.07,42.283
				c0.231,14.566-7.58,31.929-22.955,36.933C1586.656,1293.622,1586.45,1293.654,1586.246,1293.654z"/>
		</g>
		<g>
			
				<linearGradient id="SVGID_00000022525995493052369330000004058594136728029878_" gradientUnits="userSpaceOnUse" x1="950.2454" y1="417.5179" x2="1058.6602" y2="417.5179">
				<stop  offset="0" style="stop-color:#DAE3FE"/>
				<stop  offset="1" style="stop-color:#E9EFFD"/>
			</linearGradient>
			<path style="fill:url(#SVGID_00000022525995493052369330000004058594136728029878_);" d="M963.146,484.006
				c-7.125,0-12.901-5.776-12.901-12.901v-79.761c0-22.23,18.085-40.315,40.314-40.315h55.2c7.125,0,12.901,5.776,12.901,12.901
				s-5.776,12.901-12.901,12.901h-55.2c-8.002,0-14.512,6.51-14.512,14.513v79.761C976.047,478.23,970.271,484.006,963.146,484.006z
				"/>
			
				<linearGradient id="SVGID_00000019668982756292192160000011908756499592635270_" gradientUnits="userSpaceOnUse" x1="1402.767" y1="417.5179" x2="1511.1818" y2="417.5179">
				<stop  offset="0" style="stop-color:#DAE3FE"/>
				<stop  offset="1" style="stop-color:#E9EFFD"/>
			</linearGradient>
			<path style="fill:url(#SVGID_00000019668982756292192160000011908756499592635270_);" d="M1498.281,484.006
				c-7.125,0-12.901-5.776-12.901-12.901v-79.761c0-8.003-6.51-14.513-14.513-14.513h-55.2c-7.125,0-12.901-5.776-12.901-12.901
				s5.776-12.901,12.901-12.901h55.2c22.229,0,40.314,18.086,40.314,40.315v79.761
				C1511.182,478.23,1505.406,484.006,1498.281,484.006z"/>
		</g>
		<g>
			
				<linearGradient id="SVGID_00000003802188495397024870000014932493196800266117_" gradientUnits="userSpaceOnUse" x1="950.2454" y1="1048.6665" x2="1058.6602" y2="1048.6665">
				<stop  offset="0" style="stop-color:#DAE3FE"/>
				<stop  offset="1" style="stop-color:#E9EFFD"/>
			</linearGradient>
			<path style="fill:url(#SVGID_00000003802188495397024870000014932493196800266117_);" d="M1045.759,1115.155h-55.2
				c-22.229,0-40.314-18.085-40.314-40.314v-79.762c0-7.125,5.776-12.901,12.901-12.901c7.125,0,12.901,5.776,12.901,12.901v79.762
				c0,8.002,6.51,14.512,14.512,14.512h55.2c7.125,0,12.901,5.776,12.901,12.901
				C1058.66,1109.379,1052.884,1115.155,1045.759,1115.155z"/>
			
				<linearGradient id="SVGID_00000117642960865934321260000014310700864941051576_" gradientUnits="userSpaceOnUse" x1="1402.767" y1="1048.6665" x2="1511.1818" y2="1048.6665">
				<stop  offset="0" style="stop-color:#DAE3FE"/>
				<stop  offset="1" style="stop-color:#E9EFFD"/>
			</linearGradient>
			<path style="fill:url(#SVGID_00000117642960865934321260000014310700864941051576_);" d="M1470.868,1115.155h-55.2
				c-7.125,0-12.901-5.776-12.901-12.901c0-7.125,5.776-12.901,12.901-12.901h55.2c8.002,0,14.513-6.51,14.513-14.512v-79.762
				c0-7.125,5.776-12.901,12.901-12.901s12.901,5.776,12.901,12.901v79.762C1511.182,1097.07,1493.097,1115.155,1470.868,1115.155z"
				/>
		</g>
		
			<linearGradient id="SVGID_00000077291558631887217480000013723017860718839171_" gradientUnits="userSpaceOnUse" x1="989.5391" y1="732.1002" x2="1471.1438" y2="732.1002">
			<stop  offset="0" style="stop-color:#DAE3FE"/>
			<stop  offset="1" style="stop-color:#E9EFFD"/>
		</linearGradient>
		<path style="fill:url(#SVGID_00000077291558631887217480000013723017860718839171_);" d="M1457.595,1075.117h-454.506
			c-7.471,0-13.549-6.078-13.549-13.549V402.633c0-7.471,6.078-13.549,13.549-13.549h454.506c7.471,0,13.549,6.078,13.549,13.549
			v658.935C1471.144,1069.039,1465.066,1075.117,1457.595,1075.117z M1003.088,393.053c-5.283,0-9.58,4.297-9.58,9.58v658.935
			c0,5.283,4.297,9.58,9.58,9.58h454.506c5.283,0,9.58-4.297,9.58-9.58V402.633c0-5.283-4.297-9.58-9.58-9.58H1003.088z"/>
		<g>
			
				<ellipse transform="matrix(0.7071 -0.7071 0.7071 0.7071 -226.9321 1239.8512)" style="fill:#91B3FA;" cx="1383.167" cy="893.857" rx="15.878" ry="15.878"/>
			<path style="fill:#91B3FA;" d="M1383.169,895.842c-0.618,0-1.227-0.288-1.615-0.828c-0.639-0.891-0.435-2.13,0.456-2.77
				l168.703-121.069c0.337-0.242,0.742-0.372,1.157-0.372h569.621c1.096,0,1.985,0.889,1.985,1.985c0,1.096-0.889,1.985-1.985,1.985
				h-568.983l-168.185,120.697C1383.974,895.721,1383.569,895.842,1383.169,895.842z"/>
		</g>
		<g>
			
				<ellipse transform="matrix(0.9736 -0.2282 0.2282 0.9736 -134.0917 250.9136)" style="fill:#91B3FA;" cx="1017.974" cy="705.306" rx="15.878" ry="15.878"/>
			<path style="fill:#91B3FA;" d="M1017.972,707.291c-0.4,0-0.804-0.121-1.155-0.372L848.632,586.221H279.649
				c-1.096,0-1.985-0.889-1.985-1.985c0-1.096,0.889-1.985,1.985-1.985h569.622c0.415,0,0.82,0.13,1.157,0.372l168.703,121.069
				c0.891,0.64,1.094,1.879,0.456,2.77C1019.199,707.003,1018.59,707.291,1017.972,707.291z"/>
		</g>
		<g>
			<path style="fill:#FFFFFF;" d="M2248.568,643.971h-359.239c-1.096,0-1.985-0.889-1.985-1.985V419.695
				c0-1.096,0.889-1.985,1.985-1.985h359.239c1.096,0,1.985,0.889,1.985,1.985v222.291
				C2250.552,643.082,2249.664,643.971,2248.568,643.971z M1891.314,640.001h355.269V421.679h-355.269V640.001z"/>
			<g>
				<path style="fill:#FFFFFF;" d="M2070.769,593.361c-0.529,0-1.046-0.004-1.573-0.011c-45.163,0.59-101.249-25.711-125.085-85.998
					c-1.353-3.424,0.199-7.308,3.538-8.857c1.935-0.896,47.78-21.941,80.683-19.177c22.563,1.903,34.968,6.509,40.864,9.479
					c5.895-2.969,18.301-7.576,40.864-9.479c32.895-2.765,78.747,18.279,80.683,19.177c3.34,1.549,4.891,5.433,3.538,8.857
					C2170.723,566.936,2115.6,593.361,2070.769,593.361z M2069.197,579.456c0.034,0,0.069,0,0.103,0.001
					c29.053,0.394,83.682-14.251,109.432-71.012c-13.2-5.443-44.83-17.195-67.505-15.282c-28.154,2.374-37.73,9.141-37.823,9.209
					c-2.617,2.08-6.004,2.098-8.529-0.089l0,0c-0.007,0.001-9.597-6.749-37.708-9.119c-22.694-1.916-54.305,9.839-67.505,15.282
					c25.75,56.762,80.324,71.444,109.432,71.012C2069.128,579.456,2069.163,579.456,2069.197,579.456z"/>
				<path style="fill:#FFFFFF;" d="M2158,519.377c0,0-39.759,27.834-88.803,27.834s-88.803-27.834-88.803-27.834
					s39.759-6.627,88.803-6.627S2158,519.377,2158,519.377z"/>
			</g>
		</g>
		<g>
			<g>
				
					<linearGradient id="SVGID_00000163041954408307262140000015129386047012869814_" gradientUnits="userSpaceOnUse" x1="1116.5145" y1="822.4249" x2="1085.7163" y2="852.3953" gradientTransform="matrix(1 0.0066 -0.0066 1 765.326 -35.7664)">
					<stop  offset="0" style="stop-color:#53D8FF"/>
					<stop  offset="1" style="stop-color:#3840F7"/>
				</linearGradient>
				<path style="fill:url(#SVGID_00000163041954408307262140000015129386047012869814_);" d="M1869.99,809.938
					c-0.036,5.564-4.577,10.046-10.142,10.009c-5.565-0.036-10.046-4.577-10.009-10.142c0.037-5.564,4.577-10.046,10.142-10.009
					C1865.546,799.833,1870.027,804.373,1869.99,809.938z"/>
				
					<linearGradient id="SVGID_00000139256279010140889240000003278202778593577349_" gradientUnits="userSpaceOnUse" x1="1850.1738" y1="809.8715" x2="1869.6552" y2="809.8715">
					<stop  offset="0" style="stop-color:#DAE3FE"/>
					<stop  offset="1" style="stop-color:#E9EFFD"/>
				</linearGradient>
				<path style="fill:url(#SVGID_00000139256279010140889240000003278202778593577349_);" d="M1869.655,809.936
					c-0.036,5.379-4.425,9.712-9.804,9.676c-5.38-0.036-9.712-4.425-9.677-9.804c0.036-5.38,4.425-9.712,9.805-9.676
					C1865.358,800.167,1869.691,804.556,1869.655,809.936z"/>
			</g>
			<g>
				
					<linearGradient id="SVGID_00000085953825025814513390000014018353597144960646_" gradientUnits="userSpaceOnUse" x1="1116.9177" y1="883.5018" x2="1086.1195" y2="913.4722" gradientTransform="matrix(1 0.0066 -0.0066 1 765.326 -35.7664)">
					<stop  offset="0" style="stop-color:#53D8FF"/>
					<stop  offset="1" style="stop-color:#3840F7"/>
				</linearGradient>
				<path style="fill:url(#SVGID_00000085953825025814513390000014018353597144960646_);" d="M1869.99,871.017
					c-0.036,5.565-4.577,10.046-10.142,10.009c-5.565-0.037-10.046-4.577-10.009-10.142c0.037-5.565,4.577-10.046,10.142-10.009
					C1865.546,860.912,1870.027,865.453,1869.99,871.017z"/>
				
					<linearGradient id="SVGID_00000170242373618794440220000010675851913014406575_" gradientUnits="userSpaceOnUse" x1="1850.1738" y1="870.9511" x2="1869.6552" y2="870.9511">
					<stop  offset="0" style="stop-color:#DAE3FE"/>
					<stop  offset="1" style="stop-color:#E9EFFD"/>
				</linearGradient>
				<path style="fill:url(#SVGID_00000170242373618794440220000010675851913014406575_);" d="M1869.655,871.015
					c-0.036,5.379-4.425,9.712-9.804,9.676c-5.38-0.036-9.712-4.425-9.677-9.804c0.036-5.38,4.425-9.712,9.805-9.676
					C1865.358,861.246,1869.691,865.636,1869.655,871.015z"/>
			</g>
			<g>
				
					<linearGradient id="SVGID_00000131369355214446689600000014071920263734922898_" gradientUnits="userSpaceOnUse" x1="1117.3208" y1="944.5788" x2="1086.5227" y2="974.5491" gradientTransform="matrix(1 0.0066 -0.0066 1 765.326 -35.7664)">
					<stop  offset="0" style="stop-color:#53D8FF"/>
					<stop  offset="1" style="stop-color:#3840F7"/>
				</linearGradient>
				<path style="fill:url(#SVGID_00000131369355214446689600000014071920263734922898_);" d="M1869.99,932.097
					c-0.036,5.564-4.577,10.046-10.142,10.009c-5.565-0.037-10.046-4.577-10.009-10.142s4.577-10.046,10.142-10.009
					C1865.546,921.992,1870.027,926.532,1869.99,932.097z"/>
				
					<linearGradient id="SVGID_00000050657972729563799330000013312757227239828405_" gradientUnits="userSpaceOnUse" x1="1850.1738" y1="932.0307" x2="1869.6552" y2="932.0307">
					<stop  offset="0" style="stop-color:#DAE3FE"/>
					<stop  offset="1" style="stop-color:#E9EFFD"/>
				</linearGradient>
				<path style="fill:url(#SVGID_00000050657972729563799330000013312757227239828405_);" d="M1869.655,932.095
					c-0.036,5.379-4.425,9.711-9.804,9.676c-5.38-0.035-9.712-4.425-9.677-9.804c0.036-5.38,4.425-9.712,9.805-9.676
					C1865.358,922.326,1869.691,926.715,1869.655,932.095z"/>
			</g>
			
				<linearGradient id="SVGID_00000008111773128473430170000005291898083783310472_" gradientUnits="userSpaceOnUse" x1="1885.4856" y1="810.1694" x2="2168.5969" y2="810.1694">
				<stop  offset="0" style="stop-color:#DAE3FE"/>
				<stop  offset="1" style="stop-color:#E9EFFD"/>
			</linearGradient>
			<path style="fill:url(#SVGID_00000008111773128473430170000005291898083783310472_);" d="M1885.49,809.414l0.047,1.716
				c0.125,4.646,3.027,8.332,6.573,8.35l269.859,0.409c3.661,0.019,6.635-3.871,6.629-8.671l0,0c-0.006-4.707-2.88-8.545-6.47-8.64
				l-269.905-2.125C1888.432,800.352,1885.355,804.447,1885.49,809.414z"/>
			
				<linearGradient id="SVGID_00000049919700197679909370000014885602786849334435_" gradientUnits="userSpaceOnUse" x1="1885.4856" y1="870.951" x2="2168.5969" y2="870.951">
				<stop  offset="0" style="stop-color:#DAE3FE"/>
				<stop  offset="1" style="stop-color:#E9EFFD"/>
			</linearGradient>
			<path style="fill:url(#SVGID_00000049919700197679909370000014885602786849334435_);" d="M1885.49,870.195l0.047,1.716
				c0.125,4.645,3.027,8.332,6.573,8.349l269.859,0.409c3.661,0.019,6.635-3.871,6.629-8.671l0,0c-0.006-4.707-2.88-8.545-6.47-8.64
				l-269.905-2.125C1888.432,861.134,1885.355,865.229,1885.49,870.195z"/>
			
				<linearGradient id="SVGID_00000135649968082510498490000001096723918240144296_" gradientUnits="userSpaceOnUse" x1="1885.4856" y1="931.7326" x2="2168.5969" y2="931.7326">
				<stop  offset="0" style="stop-color:#DAE3FE"/>
				<stop  offset="1" style="stop-color:#E9EFFD"/>
			</linearGradient>
			<path style="fill:url(#SVGID_00000135649968082510498490000001096723918240144296_);" d="M1885.49,930.977l0.047,1.716
				c0.125,4.646,3.027,8.332,6.573,8.349l269.859,0.409c3.661,0.019,6.635-3.871,6.629-8.671l0,0c-0.006-4.707-2.88-8.545-6.47-8.64
				l-269.905-2.125C1888.432,921.915,1885.355,926.01,1885.49,930.977z"/>
		</g>
		<g>
			<g>
				
					<linearGradient id="SVGID_00000042003780181525020720000007536984851475095451_" gradientUnits="userSpaceOnUse" x1="321.4188" y1="649.1219" x2="290.6207" y2="679.0922" gradientTransform="matrix(-1 0.0066 0.0066 1 848.6219 -35.7664)">
					<stop  offset="0" style="stop-color:#53D8FF"/>
					<stop  offset="1" style="stop-color:#3840F7"/>
				</linearGradient>
				<path style="fill:url(#SVGID_00000042003780181525020720000007536984851475095451_);" d="M537.91,631.387
					c0.036,5.564,4.577,10.046,10.142,10.009c5.565-0.036,10.046-4.577,10.009-10.142c-0.037-5.564-4.577-10.046-10.142-10.009
					C542.354,621.282,537.873,625.823,537.91,631.387z"/>
				<path style="fill:#91B3FA;" d="M538.245,631.385c0.036,5.379,4.425,9.712,9.804,9.676c5.38-0.036,9.712-4.425,9.677-9.804
					c-0.036-5.38-4.425-9.712-9.805-9.676C542.542,621.616,538.209,626.005,538.245,631.385z"/>
			</g>
			<g>
				
					<linearGradient id="SVGID_00000116217748221210335780000003981825760360608410_" gradientUnits="userSpaceOnUse" x1="321.822" y1="710.1988" x2="291.0238" y2="740.1691" gradientTransform="matrix(-1 0.0066 0.0066 1 848.6219 -35.7664)">
					<stop  offset="0" style="stop-color:#53D8FF"/>
					<stop  offset="1" style="stop-color:#3840F7"/>
				</linearGradient>
				<path style="fill:url(#SVGID_00000116217748221210335780000003981825760360608410_);" d="M537.91,692.467
					c0.036,5.565,4.577,10.046,10.142,10.009c5.565-0.037,10.046-4.577,10.009-10.142c-0.037-5.565-4.577-10.046-10.142-10.009
					C542.354,682.362,537.873,686.902,537.91,692.467z"/>
				<path style="fill:#91B3FA;" d="M538.245,692.464c0.036,5.379,4.425,9.712,9.804,9.676c5.38-0.035,9.712-4.425,9.677-9.804
					c-0.036-5.38-4.425-9.712-9.805-9.676C542.542,682.695,538.209,687.085,538.245,692.464z"/>
			</g>
			<g>
				
					<linearGradient id="SVGID_00000107555302102753986000000003282603109908661651_" gradientUnits="userSpaceOnUse" x1="322.225" y1="771.2758" x2="291.427" y2="801.246" gradientTransform="matrix(-1 0.0066 0.0066 1 848.6219 -35.7664)">
					<stop  offset="0" style="stop-color:#53D8FF"/>
					<stop  offset="1" style="stop-color:#3840F7"/>
				</linearGradient>
				<path style="fill:url(#SVGID_00000107555302102753986000000003282603109908661651_);" d="M537.91,753.546
					c0.036,5.564,4.577,10.046,10.142,10.009c5.565-0.037,10.046-4.578,10.009-10.142c-0.037-5.564-4.577-10.046-10.142-10.009
					C542.354,743.441,537.873,747.982,537.91,753.546z"/>
				<path style="fill:#91B3FA;" d="M538.245,753.544c0.036,5.379,4.425,9.712,9.804,9.676c5.38-0.036,9.712-4.425,9.677-9.804
					c-0.036-5.38-4.425-9.712-9.805-9.676C542.542,743.775,538.209,748.165,538.245,753.544z"/>
			</g>
			<path style="fill:#91B3FA;" d="M522.41,630.863l-0.046,1.716c-0.126,4.646-3.027,8.332-6.573,8.35l-269.859,0.409
				c-3.661,0.019-6.635-3.871-6.629-8.671l0,0c0.006-4.707,2.88-8.545,6.47-8.64l269.905-2.125
				C519.468,621.801,522.544,625.896,522.41,630.863z"/>
			<path style="fill:#91B3FA;" d="M522.41,691.645l-0.046,1.716c-0.126,4.645-3.027,8.332-6.573,8.349l-269.859,0.409
				c-3.661,0.019-6.635-3.871-6.629-8.671l0,0c0.006-4.707,2.88-8.545,6.47-8.64l269.905-2.125
				C519.468,682.583,522.544,686.678,522.41,691.645z"/>
			<path style="fill:#91B3FA;" d="M522.41,752.426l-0.046,1.716c-0.126,4.646-3.027,8.332-6.573,8.349l-269.859,0.409
				c-3.661,0.019-6.635-3.871-6.629-8.671l0,0c0.006-4.707,2.88-8.545,6.47-8.64l269.905-2.125
				C519.468,743.365,522.544,747.459,522.41,752.426z"/>
		</g>
		<path style="fill:#FFFFFF;" d="M707.888,555.389H348.649c-1.096,0-1.985-0.889-1.985-1.985V331.113
			c0-1.096,0.889-1.985,1.985-1.985h359.239c1.096,0,1.985,0.889,1.985,1.985v222.291
			C709.872,554.501,708.984,555.389,707.888,555.389z M350.634,551.42h355.269V333.098H350.634V551.42z"/>
		<g>
			<path style="fill:#FFFFFF;" d="M519.667,522.311c-72.519,0-129.895-66.106-132.302-68.92c-2.224-2.599-2.224-6.431,0-9.03
				c2.407-2.814,59.784-68.92,132.302-68.92s129.895,66.106,132.302,68.92c2.224,2.599,2.224,6.431,0,9.03
				C649.563,456.204,592.186,522.311,519.667,522.311z M402.092,448.875c5.717,5.951,17.022,16.943,32.1,27.813
				c20.08,14.475,51.209,31.73,85.476,31.73s65.396-17.255,85.476-31.73c15.076-10.869,26.381-21.859,32.1-27.813
				c-5.719-5.953-17.023-16.944-32.1-27.813c-20.08-14.475-51.209-31.73-85.476-31.73s-65.396,17.255-85.476,31.73
				C419.115,431.931,407.81,442.922,402.092,448.875z"/>
			<path style="fill:#FFFFFF;" d="M519.667,508.417c-32.832,0-59.542-26.711-59.542-59.542s26.711-59.542,59.542-59.542
				s59.542,26.711,59.542,59.542S552.499,508.417,519.667,508.417z M519.667,403.226c-25.171,0-45.649,20.478-45.649,45.649
				c0,25.171,20.478,45.649,45.649,45.649c25.171,0,45.649-20.478,45.649-45.649C565.317,423.704,544.838,403.226,519.667,403.226z"
				/>
			<circle style="fill:#FFFFFF;" cx="519.668" cy="448.875" r="28.779"/>
		</g>
		<g>
			
				<linearGradient id="SVGID_00000013185374611063156610000002962033433328545695_" gradientUnits="userSpaceOnUse" x1="-3599.718" y1="962.3958" x2="-3530.9619" y2="1134.8693" gradientTransform="matrix(-1 0 0 1 -3075.5073 0)">
				<stop  offset="0" style="stop-color:#09005D"/>
				<stop  offset="1" style="stop-color:#1A0F91"/>
			</linearGradient>
			<path style="fill:url(#SVGID_00000013185374611063156610000002962033433328545695_);" d="M492.017,1058.591
				c0,0-17.863,23.817-38.922,30.333c-10.021,3.1-27.851,11.248-30.279,30.843c-1.253,10.117-8.74,18.219-18.816,19.764
				c-25.097,3.847-63.773,16.879-69.961,60.452c-4.723,33.259,12.232,45.87,30.026,50.235c13.069,3.206,21.754,15.918,19.111,29.112
				c-2.535,12.655,1.245,27.286,23.17,38.854c49.132,25.925,98.197-61.418,98.197-61.418l10.055-152.506L492.017,1058.591z"/>
			
				<linearGradient id="SVGID_00000063595531771068670450000001296573626050784444_" gradientUnits="userSpaceOnUse" x1="-3654.2166" y1="1068.7153" x2="-3598.4031" y2="1195.7036" gradientTransform="matrix(-1 0 0 1 -3075.5073 0)">
				<stop  offset="0" style="stop-color:#A22B25"/>
				<stop  offset="1" style="stop-color:#C0423C"/>
			</linearGradient>
			<path style="fill:url(#SVGID_00000063595531771068670450000001296573626050784444_);" d="M604.461,1028.837
				c0,0-28.974,78.986-78.343,103.672c0,0,16.432,26.811,25.007,28.437c0,0,52.739-67.5,58.116-122.802L604.461,1028.837z"/>
			
				<linearGradient id="SVGID_00000096030635263854722510000004652874453275239588_" gradientUnits="userSpaceOnUse" x1="-3481.4492" y1="1510.1044" x2="-3455.8318" y2="1510.1044" gradientTransform="matrix(-1 0 0 1 -3075.5073 0)">
				<stop  offset="0" style="stop-color:#A737D5"/>
				<stop  offset="1" style="stop-color:#EF497A"/>
			</linearGradient>
			<path style="fill:url(#SVGID_00000096030635263854722510000004652874453275239588_);" d="M405.911,1503.96l-1.457,11.979
				c-0.276,2.272-2.065,4.069-4.34,4.329c-3.84,0.439-10.002,0.888-16.031,0.251c-2.646-0.28-4.365-2.96-3.559-5.496
				c1.47-4.624,4.159-11.566,8.035-15.651h13.288C404.305,1499.373,406.208,1501.522,405.911,1503.96z"/>
			
				<linearGradient id="SVGID_00000101105320890843460010000012232625846736501937_" gradientUnits="userSpaceOnUse" x1="-3589.697" y1="1611.1257" x2="-3552.8315" y2="1180.2593" gradientTransform="matrix(-1 0 0 1 -3075.5073 0)">
				<stop  offset="0" style="stop-color:#A22B25"/>
				<stop  offset="1" style="stop-color:#C0423C"/>
			</linearGradient>
			<path style="fill:url(#SVGID_00000101105320890843460010000012232625846736501937_);" d="M509.988,1363.639l2.243,13.193
				c0,0-7.511,76.077-8.847,106.508c-0.209,4.771,1.025,9.486,3.529,13.552l13.06,21.208l-33.191-19.586l-0.661-4.05l5.433-7.471
				l-7.117-85.225c-0.418-5.007,0.615-10.028,2.975-14.463l6.866-12.898L509.988,1363.639z"/>
			
				<linearGradient id="SVGID_00000016790066557638973850000004148305923358775210_" gradientUnits="userSpaceOnUse" x1="-3600.4666" y1="1505.4271" x2="-3559.0154" y2="1505.4271" gradientTransform="matrix(-1 0 0 1 -3075.5073 0)">
				<stop  offset="0" style="stop-color:#A737D5"/>
				<stop  offset="1" style="stop-color:#EF497A"/>
			</linearGradient>
			<path style="fill:url(#SVGID_00000016790066557638973850000004148305923358775210_);" d="M522.159,1521.173h-10.592
				c-1.983,0-3.852-0.91-5.061-2.481c-3.302-4.291-10.143-12.661-13.415-12.88c-4.404-0.294-3.841,15.361-3.841,15.361h-2.468
				l-3.127-19.454c-0.787-4.895,1.647-9.744,6.043-12.037l0,0c0,0,1.007,7.445,6.465,10.737
				c5.458,3.293,22.212,15.086,22.212,15.086s2.052-0.292,4.305,0.115C526.022,1516.224,525.555,1521.173,522.159,1521.173z"/>
			
				<linearGradient id="SVGID_00000147178209344198805980000004245784451825584288_" gradientUnits="userSpaceOnUse" x1="-3515.5396" y1="1617.5374" x2="-3478.6643" y2="1186.5566" gradientTransform="matrix(-1 0 0 1 -3075.5073 0)">
				<stop  offset="0" style="stop-color:#A22B25"/>
				<stop  offset="1" style="stop-color:#C0423C"/>
			</linearGradient>
			<path style="fill:url(#SVGID_00000147178209344198805980000004245784451825584288_);" d="M464.526,1369.905
				c0,0-44,83.464-50.994,102.52c-6.994,19.056-9.444,34.953-9.538,36.458c-0.147,2.352-3.072,4.609-11.137,4.609
				c-4.162,0-6.2-1.668-7.198-3.283c-0.852-1.378-0.896-3.102-0.178-4.554c2.545-5.151,10.622-21.612,13.614-29.078
				c3.572-8.914,11.254-49.311,15.468-63.357c4.213-14.046,8.976-29.281,27.324-43.315
				C441.886,1369.905,454.481,1357.568,464.526,1369.905z"/>
			
				<linearGradient id="SVGID_00000064324078584842484690000015409667813402660227_" gradientUnits="userSpaceOnUse" x1="626.6968" y1="1111.7075" x2="170.6516" y2="1426.7386">
				<stop  offset="0" style="stop-color:#FE7062"/>
				<stop  offset="1" style="stop-color:#FF928E"/>
			</linearGradient>
			<path style="fill:url(#SVGID_00000064324078584842484690000015409667813402660227_);" d="M492.322,1233.145
				c11.35-48.094-17.403-75.296-17.403-75.296c18.143-17.415,51.198-25.339,51.198-25.339s31.542,23.06,27.8,41.11
				c-2.193,10.579-22.171,63.366-22.171,63.366S513.273,1245.728,492.322,1233.145z"/>
			
				<linearGradient id="SVGID_00000049929548403111357050000013117611250974270637_" gradientUnits="userSpaceOnUse" x1="-3487.2446" y1="1185.0192" x2="-3579.4138" y2="1332.4896" gradientTransform="matrix(-1 0 0 1 -3075.5073 0)">
				<stop  offset="0" style="stop-color:#4042E2"/>
				<stop  offset="1" style="stop-color:#4F52FF"/>
			</linearGradient>
			<path style="fill:url(#SVGID_00000049929548403111357050000013117611250974270637_);" d="M467.157,1256.955
				c4.619-13.915,25.165-23.81,25.165-23.81c20.951,12.583,39.424,3.84,39.424,3.84s4.143,15.836,1.284,30.552
				c-2.86,14.716-20.799,109.294-20.799,109.294c-28.268,5.728-71.742-5.762-71.742-5.762
				C458.494,1339.103,462.538,1270.871,467.157,1256.955z"/>
			
				<linearGradient id="SVGID_00000092458094345158320120000000922327753624298658_" gradientUnits="userSpaceOnUse" x1="-3593.74" y1="1186.4203" x2="-3586.8149" y2="1135.7579" gradientTransform="matrix(-1 0 0 1 -3075.5073 0)">
				<stop  offset="0" style="stop-color:#A22B25"/>
				<stop  offset="1" style="stop-color:#C0423C"/>
			</linearGradient>
			<path style="fill:url(#SVGID_00000092458094345158320120000000922327753624298658_);" d="M505.497,1100.727l-9.228,41.449
				c-0.884,3.651,2.445,3.054,6.136,2.358c6.045-1.139,13.836-3.487,16.441-8.191c0.265-0.478,0.397-1.02,0.472-1.562l3.964-28.742
				c0.315-2.28-0.918-4.493-3.022-5.427l-7.651-3.392C509.664,1095.914,506.254,1097.595,505.497,1100.727z"/>
			
				<linearGradient id="SVGID_00000181773149606350399930000003656705785730675088_" gradientUnits="userSpaceOnUse" x1="461.8104" y1="1250.4688" x2="497.5359" y2="1104.9208">
				<stop  offset="0" style="stop-color:#A22B25"/>
				<stop  offset="1" style="stop-color:#C0423C"/>
			</linearGradient>
			<path style="fill:url(#SVGID_00000181773149606350399930000003656705785730675088_);" d="M474.919,1157.849
				c0,0-64.406,46.079-8.237,94.498c0,0,2.142,2.423,6.355,3.682c2.127,0.636,8.419,5.396,11.61,7.879
				c1.026,0.798,2.508,0.526,3.197-0.575l0,0c0.54-0.863,0.604-1.942,0.168-2.862l-7.973-16.861
				c-2.214-2.066-5.603-2.213-7.988-0.346l0,0c-1.521,1.191-3.749,0.692-4.601-1.042c-4.342-8.843-12.541-34.853,21.017-64.242
				c1.262-1.105,1.581-2.932,0.806-4.42C486.915,1169.031,481.523,1160.037,474.919,1157.849z"/>
			<g>
				
					<linearGradient id="SVGID_00000152238932733931855220000008157878532779563141_" gradientUnits="userSpaceOnUse" x1="-3611.2192" y1="1121.1011" x2="-3550.7974" y2="1013.5706" gradientTransform="matrix(-1 0 0 1 -3075.5073 0)">
					<stop  offset="0" style="stop-color:#A22B25"/>
					<stop  offset="1" style="stop-color:#C0423C"/>
				</linearGradient>
				<path style="fill:url(#SVGID_00000152238932733931855220000008157878532779563141_);" d="M516.324,1061.261
					c0,0,10.929,4.615,18.36,20.407c7.431,15.792,1.882,23.084-5.089,24.085c-6.971,1.001-17.394,0.849-28.421-9.353
					C490.148,1086.199,502.117,1055.791,516.324,1061.261z"/>
				
					<linearGradient id="SVGID_00000017491061255390834010000017630949748690162324_" gradientUnits="userSpaceOnUse" x1="-3598.2256" y1="1027.459" x2="-3568.0146" y2="1103.2419" gradientTransform="matrix(-1 0 0 1 -3075.5073 0)">
					<stop  offset="0" style="stop-color:#09005D"/>
					<stop  offset="1" style="stop-color:#1A0F91"/>
				</linearGradient>
				<path style="fill:url(#SVGID_00000017491061255390834010000017630949748690162324_);" d="M508.586,1087.969
					c0,0-8.245-23.105,12.239-23.378l4.82,3.369c0,0,7.516-12.81-4.82-18.925c-12.336-6.115-26.774-1.064-32.024,15.556
					c-5.25,16.62-6.146,27.746,2.588,35.697c8.734,7.952,12.333-1.064,12.333-1.064s-4.756-7.438-2.82-11.417
					c1.936-3.979,6.402,0.823,6.402,0.823L508.586,1087.969z"/>
				
					<linearGradient id="SVGID_00000152974063207193025200000016877028447711920802_" gradientUnits="userSpaceOnUse" x1="-3598.3577" y1="1128.3281" x2="-3537.9358" y2="1020.7977" gradientTransform="matrix(-1 0 0 1 -3075.5073 0)">
					<stop  offset="0" style="stop-color:#A22B25"/>
					<stop  offset="1" style="stop-color:#C0423C"/>
				</linearGradient>
				<path style="fill:url(#SVGID_00000152974063207193025200000016877028447711920802_);" d="M506.289,1090.543
					c0,0-4.169-11.902-9.73-7.162c-5.561,4.74,4.52,10.994,8.467,13.02L506.289,1090.543z"/>
			</g>
			<g>
				
					<linearGradient id="SVGID_00000181079957215029093490000016158110684684108730_" gradientUnits="userSpaceOnUse" x1="-3665.2456" y1="1073.563" x2="-3609.4321" y2="1200.5511" gradientTransform="matrix(-1 0 0 1 -3075.5073 0)">
					<stop  offset="0" style="stop-color:#A22B25"/>
					<stop  offset="1" style="stop-color:#C0423C"/>
				</linearGradient>
				<path style="fill:url(#SVGID_00000181079957215029093490000016158110684684108730_);" d="M607.242,1043.214
					c0.442,1.405-4.677,3.545-7.691-2.202c-0.105-2.755-1.781-14.556-0.135-16.8c8.767-11.952,25.763-26.934,25.763-26.934
					c2.872,2.834,0.506,5.619,0.506,5.619l-8.245,8.589c1.725,3.116,3.828,5.747,4.814,9.517c0.747,2.855,0.29,5.906-1.152,8.504
					c-1.447,2.607-3.422,5.997-5.288,8.649C612.28,1043.176,607.242,1043.214,607.242,1043.214z"/>
				
					<linearGradient id="SVGID_00000088107970233382378010000011884694570961124783_" gradientUnits="userSpaceOnUse" x1="-3691.9968" y1="1026.6254" x2="-3678.5378" y2="1026.6254" gradientTransform="matrix(-1 0 0 1 -3075.5073 0)">
					<stop  offset="0" style="stop-color:#A22B25"/>
					<stop  offset="1" style="stop-color:#C0423C"/>
				</linearGradient>
				<path style="fill:url(#SVGID_00000088107970233382378010000011884694570961124783_);" d="M611.637,1037.377l-1.954-0.349
					c0.235-1.307,2.336-12.851,4.059-15.652c0.622-1.013,0.87-1.838,0.716-2.386c-0.072-0.255-0.246-0.49-0.53-0.709l-6.768,5.737
					l-2.269,6.099l-1.861-0.692l2.451-6.585l8.215-6.965l0.589,0.3c1.135,0.581,1.816,1.326,2.084,2.279
					c0.316,1.126,0.01,2.422-0.937,3.961C614.14,1024.518,612.255,1033.929,611.637,1037.377z"/>
			</g>
			<path style="opacity:0.71;fill:#FFFFFF;" d="M369.993,1228.551c-8.725,0.001-17.669-6.159-20.977-15.147
				c-3.48-9.459-1.219-21.05,5.903-30.251c5.72-7.39,14.497-13.432,26.088-17.955c6.414-2.504,13.154-4.398,19.67-6.228
				c3.569-1.003,7.26-2.04,10.853-3.164c8.487-2.656,17.859-6.427,23.025-14.255c3.173-4.806,4.379-10.637,5.543-16.277
				c0.263-1.271,0.525-2.539,0.808-3.794c1.31-5.809,3.811-14.01,10.37-18.149c2.971-1.876,6.458-2.699,9.829-3.495
				c1.09-0.257,2.216-0.522,3.306-0.82c5.622-1.534,9.265-4.047,10.828-7.469c0.056-0.125,0.205-0.178,0.328-0.123
				c0.125,0.057,0.18,0.204,0.123,0.329c-1.627,3.562-5.379,6.167-11.15,7.742c-1.096,0.299-2.227,0.566-3.321,0.825
				c-3.332,0.786-6.777,1.599-9.678,3.43c-6.404,4.042-8.861,12.117-10.15,17.839c-0.283,1.253-0.545,2.519-0.806,3.786
				c-1.174,5.686-2.39,11.564-5.615,16.45c-5.253,7.957-14.722,11.772-23.293,14.454c-3.599,1.127-7.293,2.165-10.866,3.169
				c-6.506,1.828-13.232,3.718-19.625,6.212c-11.505,4.491-20.211,10.479-25.876,17.798c-7.017,9.066-9.251,20.475-5.829,29.776
				c3.81,10.35,15.247,16.873,24.972,14.239c0.135-0.037,0.269,0.043,0.304,0.174c0.036,0.133-0.043,0.268-0.174,0.304
				C373.082,1228.357,371.54,1228.551,369.993,1228.551z"/>
			<path style="opacity:0.71;fill:#FFFFFF;" d="M367.919,1219.996c-0.013,0-0.026-0.001-0.04-0.003
				c-4.22-0.684-7.948-4.386-9.065-9.003c-0.975-4.031-0.166-8.618,2.278-12.918c4.974-8.748,15.257-14.525,30.564-17.169
				c2.781-0.481,5.644-0.881,8.412-1.269c9.019-1.262,18.344-2.567,26.429-6.854c8.676-4.601,15.477-12.568,18.661-21.856
				c1.582-4.613,2.295-9.543,2.984-14.309c0.405-2.803,0.824-5.701,1.415-8.516c2.003-9.52,5.934-16.124,11.685-19.631
				c0.116-0.068,0.268-0.033,0.341,0.083c0.071,0.116,0.034,0.269-0.083,0.341c-5.629,3.433-9.483,9.929-11.456,19.31
				c-0.589,2.798-1.007,5.689-1.411,8.484c-0.692,4.789-1.408,9.742-3.005,14.399c-3.224,9.406-10.112,17.474-18.898,22.134
				c-8.162,4.329-17.531,5.64-26.592,6.908c-2.764,0.387-5.623,0.787-8.395,1.266c-15.155,2.619-25.321,8.312-30.217,16.926
				c-2.382,4.19-3.173,8.649-2.228,12.557c1.072,4.428,4.633,7.977,8.662,8.629c0.136,0.022,0.227,0.149,0.206,0.285
				C368.144,1219.91,368.039,1219.996,367.919,1219.996z"/>
		</g>
		<g>
			
				<linearGradient id="SVGID_00000108277368450128408600000001594335829902337697_" gradientUnits="userSpaceOnUse" x1="1882.248" y1="1145.2885" x2="1714.9146" y2="1354.6222">
				<stop  offset="0" style="stop-color:#FE7062"/>
				<stop  offset="1" style="stop-color:#FF928E"/>
			</linearGradient>
			<path style="fill:url(#SVGID_00000108277368450128408600000001594335829902337697_);" d="M1859.505,1139.965
				c0,0-49.866,55.573-17.863,55.573c1.985,0,27.786,0,27.786,0L1859.505,1139.965z"/>
			
				<linearGradient id="SVGID_00000098210935344801104400000007876749674147449219_" gradientUnits="userSpaceOnUse" x1="-879.6362" y1="1925.6703" x2="-824.9696" y2="1788.3369" gradientTransform="matrix(-1 0 0 1 1142.6265 0)">
				<stop  offset="0" style="stop-color:#09005D"/>
				<stop  offset="1" style="stop-color:#1A0F91"/>
			</linearGradient>
			<path style="fill:url(#SVGID_00000098210935344801104400000007876749674147449219_);" d="M1882.591,1492.804
				c0,0,1.693,9.582,2.522,19.067c0.324,3.707-2.534,6.926-6.252,7.08c-12.631,0.526-39.65,1.549-49.346,1.117
				c-1.457-0.065-2.41-1.557-1.871-2.913l0,0c0.452-1.136,1.324-2.054,2.434-2.565l44.631-20.512L1882.591,1492.804z"/>
			
				<linearGradient id="SVGID_00000150083754655440172070000002017288435561044905_" gradientUnits="userSpaceOnUse" x1="-741.3505" y1="1492.7643" x2="-726.8336" y2="1492.7643" gradientTransform="matrix(-1 0 0 1 1142.6265 0)">
				<stop  offset="0" style="stop-color:#FF928E"/>
				<stop  offset="1" style="stop-color:#FEB3B1"/>
			</linearGradient>
			<path style="fill:url(#SVGID_00000150083754655440172070000002017288435561044905_);" d="M1883.977,1487.174l-1.36,11.462
				c0,0-7.818,3.639-13.157-0.459l3.238-12.772L1883.977,1487.174z"/>
			
				<linearGradient id="SVGID_00000093856268978794468950000017662809312198294163_" gradientUnits="userSpaceOnUse" x1="1919.6597" y1="1285.1888" x2="1846.9932" y2="1488.5222">
				<stop  offset="0" style="stop-color:#09005D"/>
				<stop  offset="1" style="stop-color:#1A0F91"/>
			</linearGradient>
			<path style="fill:url(#SVGID_00000093856268978794468950000017662809312198294163_);" d="M1882.955,1271.697
				c0.587,2.993,3.153,149.361-12.493,214.953c-0.255,1.071,0.287,2.173,1.306,2.59c2.4,0.98,7.104,2.4,12.742,2.59
				c1.746,0.059,3.311-1.076,3.804-2.752c4.472-15.219,25.903-91.467,28.698-164.305c3.124-81.389,0-2.771,0-2.771l-1.832-50.31
				L1882.955,1271.697z"/>
			
				<linearGradient id="SVGID_00000011015304564198986630000016950440651461344656_" gradientUnits="userSpaceOnUse" x1="-939.2616" y1="1901.9346" x2="-884.595" y2="1764.601" gradientTransform="matrix(-1 0 0 1 1142.6265 0)">
				<stop  offset="0" style="stop-color:#09005D"/>
				<stop  offset="1" style="stop-color:#1A0F91"/>
			</linearGradient>
			<path style="fill:url(#SVGID_00000011015304564198986630000016950440651461344656_);" d="M1933.93,1497.803
				c0,0,2.694,4.837,5.303,17.691c0.471,2.321-1.151,4.543-3.508,4.775c-4.171,0.41-10.592,0.938-15.735,0.902
				c-2.371-0.016-4.221-2.081-3.936-4.434c0.57-4.692,2.345-12.39,7.828-18.389L1933.93,1497.803z"/>
			
				<linearGradient id="SVGID_00000098923624473060394830000007824635266725155994_" gradientUnits="userSpaceOnUse" x1="-793.6705" y1="1492.0198" x2="-781.1362" y2="1492.0198" gradientTransform="matrix(-1 0 0 1 1142.6265 0)">
				<stop  offset="0" style="stop-color:#FF928E"/>
				<stop  offset="1" style="stop-color:#FEB3B1"/>
			</linearGradient>
			<path style="fill:url(#SVGID_00000098923624473060394830000007824635266725155994_);" d="M1936.297,1483.061l-3.177,17.333
				c0,0-3.142,2.337-9.357,0.643l1.517-18.649L1936.297,1483.061z"/>
			
				<linearGradient id="SVGID_00000120537976863383999530000011009776689134512302_" gradientUnits="userSpaceOnUse" x1="1940.0774" y1="1292.4856" x2="1867.4106" y2="1495.8196">
				<stop  offset="0" style="stop-color:#09005D"/>
				<stop  offset="1" style="stop-color:#1A0F91"/>
			</linearGradient>
			<path style="fill:url(#SVGID_00000120537976863383999530000011009776689134512302_);" d="M1944.881,1276.188
				c12.796,77.225-2.776,190.868-8.028,213.11c-0.322,1.362-1.421,2.405-2.801,2.634c-2.344,0.388-6.204,0.706-10.008-0.4
				c-1.311-0.381-2.232-1.563-2.285-2.927c-0.705-17.983,0.564-128.378-11.359-172.007c-0.604-2.211-1.955-4.139-3.823-5.467
				l-23.142-16.452l-1.774-26.593L1944.881,1276.188z"/>
			<g>
				
					<linearGradient id="SVGID_00000170959371140397656010000011355488641185805727_" gradientUnits="userSpaceOnUse" x1="1927.0454" y1="1181.098" x2="1759.7124" y2="1390.4313">
					<stop  offset="0" style="stop-color:#FE7062"/>
					<stop  offset="1" style="stop-color:#FF928E"/>
				</linearGradient>
				<path style="fill:url(#SVGID_00000170959371140397656010000011355488641185805727_);" d="M1859.505,1139.965
					c37.71-11.908,84.498-0.034,84.498-0.034c11.43,66.697,1.999,143.627,1.999,143.627c-29.688,7.785-63.177-4.76-63.177-4.76
					C1877.891,1250.92,1848.225,1143.527,1859.505,1139.965z"/>
			</g>
			
				<linearGradient id="SVGID_00000029742219725714458840000004237204594234457757_" gradientUnits="userSpaceOnUse" x1="1943.4978" y1="1194.2493" x2="1776.1646" y2="1403.583">
				<stop  offset="0" style="stop-color:#FE7062"/>
				<stop  offset="1" style="stop-color:#FF928E"/>
			</linearGradient>
			<path style="fill:url(#SVGID_00000029742219725714458840000004237204594234457757_);" d="M1929.295,1177.062l14.708-37.131
				c0,0,35.818,24.337,41.709,55.194c-6.768,0.499-19.083,2.259-31.137,8.345C1951.926,1188.9,1929.295,1177.062,1929.295,1177.062z
				"/>
			
				<linearGradient id="SVGID_00000028291708374979452700000007240948468055533457_" gradientUnits="userSpaceOnUse" x1="1886.8188" y1="1237.7726" x2="1974.1522" y2="1215.106">
				<stop  offset="0" style="stop-color:#FF928E"/>
				<stop  offset="1" style="stop-color:#FEB3B1"/>
			</linearGradient>
			<path style="fill:url(#SVGID_00000028291708374979452700000007240948468055533457_);" d="M1897.994,1212.002
				c0,0,40.215,22.728,53.784,3.321c2.817-4.03,3.491-8.034,2.797-11.853c12.054-6.087,24.37-7.847,31.137-8.345
				c1.776,9.302,0.837,19.196-4.629,29.195c-23.769,43.479-88.411-2.403-88.411-2.403L1897.994,1212.002z"/>
			<g>
				
					<linearGradient id="SVGID_00000087395276951494832420000000881135014678025648_" gradientUnits="userSpaceOnUse" x1="1844.0173" y1="1249.3364" x2="1860.0173" y2="1159.3367">
					<stop  offset="0" style="stop-color:#09005D"/>
					<stop  offset="1" style="stop-color:#1A0F91"/>
				</linearGradient>
				<path style="fill:url(#SVGID_00000087395276951494832420000000881135014678025648_);" d="M1902.825,1240.755l-21.948-76.647
					c-0.249-0.87-0.991-1.505-1.89-1.609c-3.977-0.464-15.499-1.766-28.803-2.892c-16.025-1.355-34.635-2.454-45.755-1.519
					c-1.581,0.133-2.536,1.805-1.833,3.227c6.324,12.794,32.336,64.837,45.362,81.886c0.432,0.565,1.099,0.895,1.81,0.888
					l50.923-0.474C1902.172,1243.601,1903.234,1242.179,1902.825,1240.755z"/>
				<path style="fill:#7D97F4;" d="M1847.908,1152.961l-15.913-2.651c-0.847-0.141-1.542,0.669-1.272,1.484l1.575,4.773
					c0.137,0.416,0.499,0.716,0.933,0.774l15.313,2.046c0.792,0.106,1.445-0.614,1.263-1.392l-0.975-4.167
					C1848.727,1153.379,1848.362,1153.037,1847.908,1152.961z"/>
				<path style="fill:#7D97F4;" d="M1859.822,1166.433l-1.311-6.828c-0.132-0.685-0.697-1.202-1.391-1.273l-32.14-3.261
					c-1.082-0.11-1.948,0.882-1.694,1.939l2.043,8.509c0.164,0.681,0.756,1.172,1.456,1.208l31.407,1.581
					C1859.215,1168.358,1860.016,1167.438,1859.822,1166.433z"/>
				
					<linearGradient id="SVGID_00000111191721607696360180000017187039941980599222_" gradientUnits="userSpaceOnUse" x1="1929.0752" y1="1146.4109" x2="1887.0751" y2="1207.0776">
					<stop  offset="0" style="stop-color:#FF928E"/>
					<stop  offset="1" style="stop-color:#FEB3B1"/>
				</linearGradient>
				<path style="fill:url(#SVGID_00000111191721607696360180000017187039941980599222_);" d="M1897.523,1222.237
					c0,0,3.057-12.572,1.824-17.032c-1.233-4.46-3.623-10.195-11.588-8.921c-7.965,1.274-17.36,4.63-17.36,4.63
					s0.475,5.809,6.528,3.935l-3.754,2.905c0,0,0.536,4.652,5.649,2.167l-3.491,3.852c0,0,2.196,3.82,5.958,1.37
					C1885.052,1212.692,1886.855,1223.75,1897.523,1222.237z"/>
				
					<linearGradient id="SVGID_00000081626775595229439900000010087663624023495339_" gradientUnits="userSpaceOnUse" x1="-261.3206" y1="1457.1564" x2="-232.08" y2="1457.1564" gradientTransform="matrix(0.549 -0.8358 0.8358 0.549 737.0705 183.2234)">
					<stop  offset="0" style="stop-color:#FF928E"/>
					<stop  offset="1" style="stop-color:#FEB3B1"/>
				</linearGradient>
				<path style="fill:url(#SVGID_00000081626775595229439900000010087663624023495339_);" d="M1823.521,1206.979
					c0,0-12.186-4.347-15.237-7.826c-3.051-3.479-6.532-8.625-1.094-14.582c5.438-5.958,13.4-11.968,13.4-11.968
					s4.595,3.586-0.295,7.616l4.488-1.543c0,0,3.593,3.002-1.291,5.911l5.136-0.803c0,0,1.988,3.932-2.126,5.732
					C1822.389,1191.315,1830.643,1198.893,1823.521,1206.979z"/>
			</g>
			
				<linearGradient id="SVGID_00000110464279217845994270000004922342823271752127_" gradientUnits="userSpaceOnUse" x1="1890.3925" y1="1080.0972" x2="1903.7258" y2="1163.4305">
				<stop  offset="0" style="stop-color:#FF928E"/>
				<stop  offset="1" style="stop-color:#FEB3B1"/>
			</linearGradient>
			<path style="fill:url(#SVGID_00000110464279217845994270000004922342823271752127_);" d="M1904.172,1106.224l12.201,35.286
				c0.202,0.585-0.038,1.232-0.579,1.531c-3.326,1.839-15.309,7.154-29.75-2.001c-1.504-0.954-2.528-2.509-2.757-4.276l-3.951-30.54
				H1904.172z"/>
			<g>
				
					<linearGradient id="SVGID_00000105392669305744844190000015868017472657859739_" gradientUnits="userSpaceOnUse" x1="-6604.4692" y1="-1999.6848" x2="-6589.8022" y2="-2042.3516" gradientTransform="matrix(-0.746 -0.6659 -0.6659 0.746 -4512.6138 -1476.3188)">
					<stop  offset="0" style="stop-color:#FF928E"/>
					<stop  offset="1" style="stop-color:#FEB3B1"/>
				</linearGradient>
				<path style="fill:url(#SVGID_00000105392669305744844190000015868017472657859739_);" d="M1877.623,1073.549
					c0,0-13.399,25.221-11.681,35.409c1.718,10.188,18.323,9.457,32.823,1.182l10.133-27.233L1877.623,1073.549z"/>
				
					<linearGradient id="SVGID_00000119826556397802050340000009273190848783535287_" gradientUnits="userSpaceOnUse" x1="-6492.04" y1="-2406.4575" x2="-6480.4404" y2="-2340.2971" gradientTransform="matrix(-0.746 -0.6659 -0.6659 0.746 -4512.6138 -1476.3188)">
					<stop  offset="0" style="stop-color:#09005D"/>
					<stop  offset="1" style="stop-color:#1A0F91"/>
				</linearGradient>
				<path style="fill:url(#SVGID_00000119826556397802050340000009273190848783535287_);" d="M1898.124,1096.766
					c-0.589-0.261-0.807-0.982-0.454-1.521c1.073-1.64,3.086-4.985,3.728-7.914c0,0,2.409-1.542-6.131-3.586
					c-8.539-2.044-21.273-5.216-23.95-12.485c-2.61-7.087,4.247-24.908,15.186-10.708c0.416,0.54,1.231,0.552,1.647,0.012
					c1.793-2.334,6.507-7.179,13.053-4.242c6.125,2.749,6.815,7.237,6.731,9.499c-0.025,0.666,0.57,1.183,1.224,1.058
					c3.097-0.591,10.529-1.098,13.998,6.526c2.857,6.28,1,9.834-0.691,11.573c-0.548,0.563-0.308,1.491,0.443,1.721
					c2.036,0.623,4.664,2.349,4.401,7.118c-0.364,6.592-7.734,6.011-9.833,5.711c-0.344-0.049-0.69,0.069-0.923,0.326
					c-1.799,1.991-9.906,10.446-18.68,11.465c-0.76,0.088-1.349-0.662-1.1-1.385l3.797-11.038c0.176-0.513-0.069-1.075-0.565-1.294
					L1898.124,1096.766z"/>
				
					<linearGradient id="SVGID_00000052796084036738738510000000441986038987088307_" gradientUnits="userSpaceOnUse" x1="-6618.6211" y1="-2004.55" x2="-6603.9541" y2="-2047.2167" gradientTransform="matrix(-0.746 -0.6659 -0.6659 0.746 -4512.6138 -1476.3188)">
					<stop  offset="0" style="stop-color:#FF928E"/>
					<stop  offset="1" style="stop-color:#FEB3B1"/>
				</linearGradient>
				<path style="fill:url(#SVGID_00000052796084036738738510000000441986038987088307_);" d="M1896.598,1098.333
					c0,0,9.54-6.545,10.237-1.033c0.697,5.512-8.591,7.984-13.191,5.929L1896.598,1098.333z"/>
			</g>
		</g>
	</g>
</g>
</svg>
