<svg xmlns="http://www.w3.org/2000/svg" shape-rendering="geometricPrecision" text-rendering="geometricPrecision" image-rendering="optimizeQuality" fill-rule="evenodd" clip-rule="evenodd" viewBox="0 0 512 498.93"><path d="M389.76 0c33.74 0 64.31 13.69 86.42 35.8C498.31 57.92 512 88.5 512 122.24c0 33.75-13.69 64.33-35.8 86.44-22.13 22.12-52.7 35.82-86.44 35.82-33.71 0-64.27-13.68-86.4-35.82-22.19-22.2-35.86-52.76-35.86-86.44 0-33.74 13.69-64.32 35.82-86.44C325.43 13.69 356.01 0 389.76 0zM127.13 93.07 45.4 179.44h81.73V93.07zM0 195.82c0-1.15.15-2.27.41-3.35.13-3.14 1.36-6.27 3.69-8.73L128.47 52.32c2.31-4.18 6.78-7.01 11.9-7.01h113.41c-4.87 8.6-8.97 17.7-12.16 27.2h-87.3v120.52c0 7.5-6.09 13.59-13.59 13.59H27.2v265.11h392.02V275.68c9.4-1.8 18.49-4.44 27.21-7.83V471.9c0 7.39-3.05 14.15-7.93 19.05-4.96 4.94-11.72 7.98-19.11 7.98H27.04c-7.43 0-14.21-3.06-19.09-7.94C3.07 486.1 0 479.32 0 471.9V195.82zm324.89 79.39c7.53 0 13.66 6.05 13.66 13.52s-6.13 13.52-13.66 13.52H121.54c-7.54 0-13.66-6.05-13.66-13.52s6.12-13.52 13.66-13.52h203.35zm0 91.23c7.53 0 13.66 6.05 13.66 13.52s-6.13 13.52-13.66 13.52H121.54c-7.54 0-13.66-6.05-13.66-13.52s6.12-13.52 13.66-13.52h203.35zm100.9-305.16c-1.56-1.07-3.35-1.55-5.17-1.19-1.8.34-3.36 1.31-4.44 2.86l-6.14 8.67c-4.14-1.86-9.42-3.07-13.92-3.72l-1.93-11.31c-.36-1.91-1.32-3.34-2.77-4.44-1.55-1.08-3.23-1.45-5.15-1.08l-14.18 2.52c-1.8.36-3.25 1.21-4.45 2.77-1.07 1.55-1.55 3.24-1.2 5.17l1.81 10.33c-4.37 1.83-8.69 4.48-12.37 7.45l-9.62-6.62c-1.55-1.07-3.23-1.55-5.04-1.2-1.81.37-3.37 1.34-4.44 2.89l-8.17 11.66c-1.08 1.55-1.56 3.34-1.2 5.16.35 1.91 1.31 3.36 2.89 4.43l8.63 6.14c-1.81 4.12-3.07 9.47-3.71 13.92l-11.29 1.93c-1.93.37-3.36 1.33-4.46 2.78-1.07 1.55-1.43 3.22-1.07 5.15l2.52 14.17c.35 1.81 1.21 3.26 2.76 4.44 1.56 1.1 3.25 1.58 5.17 1.21l10.34-1.8c1.9 4.52 4.5 8.59 7.44 12.51l-6.61 9.48c-1.09 1.55-1.57 3.24-1.2 5.04.37 1.8 1.33 3.37 2.89 4.44l11.76 8.28c1.56 1.1 3.37 1.45 5.16 1.1 1.81-.37 3.36-1.21 4.58-2.76l6.11-8.78c4.21 1.86 9.39 3.03 13.95 3.73l1.92 11.29c.34 1.93 1.31 3.37 2.75 4.45 1.58 1.07 3.25 1.44 5.18 1.07l14.17-2.52c1.81-.36 3.23-1.2 4.44-2.76 1.09-1.56 1.57-3.24 1.2-5.16l-1.79-10.32c4.56-1.93 8.54-4.52 12.48-7.47l9.51 6.62c1.55 1.07 3.23 1.55 5.15 1.19 1.92-.34 3.37-1.31 4.44-2.89l8.3-11.77c1.07-1.56 1.44-3.36 1.07-5.15-.35-1.82-1.2-3.37-2.75-4.58l-8.77-6c1.83-4.11 3.07-9.47 3.71-13.93l11.29-1.93c1.93-.35 3.37-1.32 4.46-2.76 1.09-1.56 1.44-3.24 1.09-5.16l-2.52-14.18c-.37-1.8-1.22-3.24-2.78-4.44-1.56-1.1-3.25-1.57-5.17-1.21l-10.32 1.82c-2-4.51-4.37-8.55-7.45-12.38l6.61-9.61c1.08-1.56 1.56-3.26 1.19-5.04-.35-1.81-1.32-3.37-2.89-4.47l-11.65-8.15-.35.11zm-36.02 30.68c16.72 0 30.29 13.56 30.29 30.28 0 16.74-13.57 30.3-30.29 30.3-16.73 0-30.3-13.56-30.3-30.3 0-16.72 13.57-30.28 30.3-30.28z"/></svg>