<svg xmlns="http://www.w3.org/2000/svg" shape-rendering="geometricPrecision" text-rendering="geometricPrecision" image-rendering="optimizeQuality" fill-rule="evenodd" clip-rule="evenodd" viewBox="0 0 419 511.67"><path d="M93.01 39.4h46.12C141.84 17.18 159.77 0 181.52 0c21.61 0 39.45 16.95 42.33 38.94l46.77.46c2.61 0 4.7 2.1 4.7 4.71v51.84c0 2.61-2.09 4.7-4.7 4.7H93.05c-2.56 0-4.71-2.09-4.71-4.7V44.11a4.646 4.646 0 0 1 4.67-4.71zm221.96 264.22c57.47 0 104.03 46.58 104.03 104.02 0 57.47-46.59 104.03-104.03 104.03-57.47 0-104.02-46.59-104.02-104.03 0-57.47 46.58-104.02 104.02-104.02zm30.76 52c-1.35-.91-2.87-1.33-4.42-1.02-1.54.3-2.87 1.13-3.79 2.46l-5.23 7.38c-3.54-1.59-8.05-2.62-11.89-3.17l-1.64-9.65c-.31-1.62-1.13-2.86-2.36-3.79-1.33-.92-2.76-1.23-4.4-.92l-12.09 2.15c-1.54.31-2.78 1.03-3.79 2.36-.92 1.33-1.33 2.78-1.04 4.42l1.54 8.81c-3.72 1.56-7.4 3.82-10.55 6.35l-8.2-5.64c-1.33-.92-2.76-1.33-4.3-1.02-1.54.31-2.88 1.13-3.79 2.46l-6.98 9.95c-.91 1.33-1.33 2.86-1.02 4.39.3 1.65 1.12 2.88 2.46 3.79l7.37 5.24c-1.55 3.51-2.61 8.08-3.16 11.88l-9.64 1.64c-1.64.32-2.87 1.13-3.8 2.37-.92 1.33-1.22 2.75-.92 4.4l2.14 12.09c.32 1.55 1.04 2.77 2.37 3.8 1.33.93 2.77 1.34 4.41 1.02l8.82-1.54c1.63 3.86 3.84 7.33 6.34 10.67l-5.64 8.09c-.92 1.33-1.33 2.78-1.01 4.31.31 1.53 1.13 2.86 2.46 3.79l10.04 7.06c1.33.94 2.87 1.24 4.4.94 1.54-.31 2.87-1.03 3.91-2.36l5.21-7.49c3.6 1.58 8.01 2.59 11.9 3.18l1.65 9.64c.29 1.64 1.11 2.87 2.34 3.8 1.34.91 2.78 1.22 4.41.91l12.1-2.15c1.54-.31 2.76-1.03 3.79-2.36.92-1.33 1.33-2.76 1.02-4.4l-1.53-8.82c3.89-1.63 7.29-3.84 10.66-6.36l8.1 5.64c1.33.92 2.76 1.33 4.4 1.02 1.64-.3 2.87-1.11 3.8-2.46l7.06-10.04c.92-1.33 1.24-2.87.92-4.4-.29-1.55-1.01-2.87-2.34-3.9l-7.49-5.12c1.56-3.52 2.62-8.09 3.17-11.89l9.64-1.64c1.64-.31 2.87-1.13 3.8-2.36.92-1.33 1.23-2.76.92-4.4l-2.15-12.1c-.31-1.54-1.03-2.77-2.37-3.79-1.33-.93-2.77-1.34-4.41-1.03l-8.81 1.54c-1.7-3.83-3.72-7.28-6.35-10.55l5.64-8.21c.92-1.33 1.33-2.77 1.02-4.3-.31-1.54-1.13-2.87-2.46-3.8l-9.95-6.96-.29.09zm-30.74 26.18c14.27 0 25.84 11.57 25.84 25.84s-11.57 25.84-25.84 25.84-25.85-11.57-25.85-25.84 11.58-25.84 25.85-25.84zM41.73 59.28h23.93v24.37H41.73c-4.77 0-9.12 1.97-12.25 5.1-3.14 3.14-5.1 7.48-5.1 12.24v315.52c0 4.75 1.96 9.1 5.1 12.24 3.15 3.15 7.51 5.12 12.25 5.12h142.61c1.69 8.44 4.17 16.6 7.37 24.38H41.73c-11.45 0-21.9-4.71-29.47-12.28C4.72 438.43 0 427.98 0 416.51V100.99c0-11.48 4.7-21.91 12.25-29.46 7.55-7.55 17.99-12.25 29.48-12.25zm297.54 217.35V100.99c0-4.77-1.96-9.11-5.09-12.26a17.36 17.36 0 0 0-12.26-5.08H298V59.28h23.92c11.44 0 21.86 4.71 29.41 12.25 7.61 7.61 12.32 18.04 12.32 29.46V283.6c-7.79-3.07-15.95-5.42-24.38-6.97zm-206.74-8.06c-7.13 0-12.93-5.79-12.93-12.92s5.8-12.93 12.93-12.93h142.82c7.13 0 12.92 5.8 12.92 12.93s-5.79 12.92-12.92 12.92H132.53zM89.5 241.21c7.98 0 14.44 6.47 14.44 14.44 0 7.98-6.46 14.44-14.44 14.44-7.97 0-14.44-6.46-14.44-14.44 0-7.97 6.47-14.44 14.44-14.44zm0 78.62c7.98 0 14.44 6.47 14.44 14.44 0 7.98-6.46 14.44-14.44 14.44-7.97 0-14.44-6.46-14.44-14.44 0-7.97 6.47-14.44 14.44-14.44zm43.04 27.36c-7.13 0-12.93-5.79-12.93-12.92s5.8-12.93 12.93-12.93h80.96a133.913 133.913 0 0 0-17.26 25.85h-63.7zM89.5 162.61c7.98 0 14.44 6.46 14.44 14.43 0 7.98-6.46 14.44-14.44 14.44-7.97 0-14.44-6.46-14.44-14.44 0-7.97 6.47-14.43 14.44-14.43zm43.03 27.35c-7.13 0-12.93-5.79-12.93-12.92 0-7.14 5.8-12.93 12.93-12.93h142.82c7.13 0 12.92 5.79 12.92 12.93 0 7.13-5.79 12.92-12.92 12.92H132.53zm48.5-169.8c12.29 0 22.26 9.96 22.26 22.27 0 12.29-9.97 22.25-22.26 22.25-12.3 0-22.26-9.96-22.26-22.25 0-12.31 9.96-22.27 22.26-22.27z"/></svg>