<?xml version="1.0" encoding="utf-8"?><!-- Uploaded to: SVG Repo, www.svgrepo.com, Generator: SVG Repo Mixer Tools -->
<svg fill="#000000" width="800px" height="800px" viewBox="0 0 1024 1024" xmlns="http://www.w3.org/2000/svg"><path d="M942.933 554.667H81.066c-34.133 0-59.733 25.6-59.733 59.733V1024c0 12.8 8.533 21.333 21.333 21.333S63.999 1036.8 63.999 1024V614.4c0-8.533 8.533-17.067 17.067-17.067h861.867c8.533 0 17.067 8.533 17.067 17.067V1024c0 12.8 8.533 21.333 21.333 21.333s21.333-8.533 21.333-21.333V614.4c0-34.133-25.6-59.733-59.733-59.733zm-657.066-115.2h204.8V473.6h-46.933c-12.8 0-21.333 8.533-21.333 21.333s8.533 21.333 21.333 21.333h136.533c12.8 0 21.333-8.533 21.333-21.333s-8.533-21.333-21.333-21.333h-46.933v-34.133h204.8c34.133 0 59.733-25.6 59.733-59.733v-256c0-34.133-25.6-59.733-59.733-59.733H285.867c-34.133 0-59.733 25.6-59.733 59.733v256c0 34.133 25.6 59.733 59.733 59.733zM268.8 123.733c0-8.533 8.533-17.067 17.067-17.067h448c8.533 0 17.067 8.533 17.067 17.067v256c0 8.533-8.533 17.067-17.067 17.067h-448c-8.533 0-17.067-8.533-17.067-17.067v-256z"/><path d="M277.333 631.467H140.8c-21.333 0-42.667 17.067-42.667 42.667v332.8c0 21.333 17.067 42.667 42.667 42.667h136.533c21.333 0 42.667-17.067 42.667-42.667v-332.8c0-25.6-21.333-42.667-42.667-42.667zm0 371.2H145.066V674.134h136.533v328.533z"/></svg>