<svg version="1.1" id="Capa_1" xmlns="http://www.w3.org/2000/svg" xmlns:xlink="http://www.w3.org/1999/xlink" x="0px" y="0px" viewBox="0 0 512 512" style="enable-background:new 0 0 512 512;" xml:space="preserve">
<g>
	<g>
		<path d="M121.856,211.5c5.302-33.944,34.736-60,70.144-60h128c55.691,0,101-45.309,101-101h-30c0,39.149-31.851,71-71,71H192
			c-51.974,0-94.899,39.464-100.399,90H0v250h512v-250H121.856z M482,431.5H30v-190h452V431.5z" id="id_110" style="fill: rgb(13, 110, 214);"></path>
	</g>
</g>
<g>
	<g>
		<rect x="70" y="281.5" width="60" height="40" id="id_111" style="fill: rgb(33, 116, 204);"></rect>
	</g>
</g>
<g>
	<g>
		<rect x="160" y="281.5" width="60" height="40" id="id_112" style="fill: rgb(13, 115, 224);"></rect>
	</g>
</g>
<g>
	<g>
		<rect x="250" y="281.5" width="60" height="40" id="id_113" style="fill: rgb(29, 123, 224);"></rect>
	</g>
</g>
<g>
	<g>
		<rect x="340" y="281.5" width="60" height="40" id="id_114" style="fill: rgb(37, 130, 230);"></rect>
	</g>
</g>
<g>
	<g>
		<rect x="72" y="351.5" width="60" height="40" id="id_115" style="fill: rgb(31, 123, 222);"></rect>
	</g>
</g>
<g>
	<g>
		<rect x="162" y="351.5" width="100" height="40" id="id_116" style="fill: rgb(23, 104, 191);"></rect>
	</g>
</g>
<g>
	<g>
		<rect x="292" y="351.5" width="60" height="40" id="id_117" style="fill: rgb(50, 139, 235);"></rect>
	</g>
</g>
<g>
	<g>
		<rect x="382" y="351.5" width="60" height="40" id="id_118" style="fill: rgb(31, 103, 181);"></rect>
	</g>
</g>
<g>
</g>
<g>
</g>
<g>
</g>
<g>
</g>
<g>
</g>
<g>
</g>
<g>
</g>
<g>
</g>
<g>
</g>
<g>
</g>
<g>
</g>
<g>
</g>
<g>
</g>
<g>
</g>
<g>
</g>
</svg>